<svg width="100" height="92" viewBox="0 0 100 92" fill="none" xmlns="http://www.w3.org/2000/svg">
<g clip-path="url(#clip0_38_7)">
<path d="M39.742 4.38098H47.7776V53.4476H35.5761V8.56917C35.5761 7.45839 36.015 6.39311 36.7963 5.60767C37.5775 4.82224 38.6371 4.38098 39.742 4.38098Z" fill="#6EB83D"/>
<path d="M40.2649 56.0762H47.7776V87.4964C47.7776 88.0885 47.6614 88.6749 47.4358 89.2218C47.2101 89.7688 46.8793 90.2657 46.4624 90.684C46.0455 91.1023 45.5507 91.4339 45.0062 91.6597C44.4616 91.8855 43.8782 92.0011 43.2892 92H35.5674V60.7901C35.5674 60.1703 35.6889 59.5566 35.9251 58.9841C36.1613 58.4116 36.5075 57.8916 36.9438 57.4538C37.3801 57.0159 37.898 56.6689 38.4679 56.4325C39.0378 56.1961 39.6485 56.075 40.2649 56.0762Z" fill="#0F1922"/>
<path d="M56.798 0H53.5559C51.3225 0 49.5119 1.8202 49.5119 4.06552V57.2678C49.5119 59.5131 51.3225 61.3333 53.5559 61.3333H56.798C59.0314 61.3333 60.8419 59.5131 60.8419 57.2678V4.06552C60.8419 1.8202 59.0314 0 56.798 0Z" fill="#107568"/>
<path d="M57.5824 63.9619H52.7715C50.9713 63.9619 49.5119 65.4291 49.5119 67.2389V88.7231C49.5119 90.5329 50.9713 92 52.7715 92H57.5824C59.3826 92 60.8419 90.5329 60.8419 88.7231V67.2389C60.8419 65.4291 59.3826 63.9619 57.5824 63.9619Z" fill="#107568"/>
<path d="M63.4565 4.38098H72.0324C72.994 4.38098 73.9162 4.765 74.5961 5.44856C75.276 6.13212 75.658 7.05923 75.658 8.02593V53.4476H63.4565V4.38098Z" fill="#0F1922"/>
<path d="M67.9798 56.0761H75.7016V86.4011C75.7016 87.14 75.5561 87.8717 75.2735 88.5538C74.9909 89.236 74.5768 89.8552 74.0551 90.3757C73.5333 90.8961 72.9142 91.3076 72.2335 91.5864C71.5528 91.8652 70.8239 92.0057 70.0889 92H63.4565V60.5798C63.4565 59.9846 63.5738 59.3954 63.8016 58.8461C64.0295 58.2968 64.3634 57.7984 64.784 57.3796C65.2046 56.9609 65.7036 56.63 66.2521 56.4063C66.8006 56.1826 67.3878 56.0704 67.9798 56.0761Z" fill="#6EB83D"/>
<path d="M11.7222 32.5592C11.7222 32.5592 36.4651 36.064 33.5803 55.6118C33.5525 55.7926 33.4638 55.9584 33.3289 56.0812C33.194 56.2041 33.0212 56.2765 32.8395 56.2865C12.5414 57.4518 11.7222 32.5592 11.7222 32.5592Z" fill="#107568"/>
<path d="M100 32.7433C100 32.7433 75.231 35.9764 77.924 55.5943C77.9511 55.7747 78.0382 55.9405 78.1712 56.0647C78.3042 56.1888 78.4751 56.2639 78.6561 56.2778C98.9454 57.6271 100 32.7433 100 32.7433Z" fill="#6EB83D"/>
<path d="M0 62.1307C0 62.1307 20.3939 47.6297 31.628 63.8831C31.7305 64.0335 31.7786 64.2147 31.7644 64.3964C31.7501 64.5782 31.6743 64.7496 31.5496 64.8819C17.544 79.7334 0 62.1307 0 62.1307Z" fill="#6EB83D"/>
</g>
<defs>
<clipPath id="clip0_38_7">
<rect width="100" height="92" fill="white"/>
</clipPath>
</defs>
</svg>
